;;----------------------------------------
Music_BattleVictoryGuide_Ch0::
;;----------------------------------------

	tempo 112
	volume 7, 7
	duty 2
	toggleperfectpitch
;; P1-1
	notetype 8, 10, 2
	octave 4
	D_ 2
	D_ 2
	D_ 2
	D_ 2
	octave 3
	A_ 2
	octave 4
	D_ 2
	notetype 8, 11, 3
	F# 12
.loop
;; P1-2
    notetype 8, 6, 3
	octave 3
	A_ 6
	octave 4
	D_ 3
	E_ 3
	D_ 6
	G_ 3
	B_ 3
;; P1-3
	octave 3
	A_ 6
	octave 4
	D_ 3
	octave 3
	G_ 3
	B_ 3
	A_ 3
	G_ 6
;; P1-4
	A_ 6
	octave 4
	D_ 3
	E_ 3
	D_ 6
	G_ 3
	B_ 3
;; P1-5
	A_ 3
	F# 3
	A_ 3
	F# 3
	rest 3
	A_ 3
	A_ 3
	rest 3
	loopchannel 0, .loop

;;----------------------------------------
Music_BattleVictoryGuide_Ch1::
;;----------------------------------------

;; P2-1
	duty 2
	notetype 8, 12, 3
	octave 4
	A_ 2
	A_ 2
	A_ 2
	A_ 2
	B_ 2
	octave 5
	C# 2
	notetype 8, 12, 4
	D_ 12
.loop
;; P2-2
    notetype 8, 8, 5
	octave 4
	D_ 6
	F# 3
	A_ 3
	G_ 6
	B_ 3
	octave 5
	D_ 3
;; P2-3
	octave 4
	D_ 6
	F# 3
	A_ 3
	G_ 3
	F# 3
	E_ 3
	D_ 3
;; P2-4
	D_ 6
	F# 3
	A_ 3
	G_ 6
	B_ 3
	octave 5
	D_ 3
;; P2-5
	C# 3
	octave 4
	B_ 3
	octave 5
	C# 3
	octave 4
	A_ 3
	rest 3
	octave 5
	D_ 3
	D_ 3
	rest 3
	loopchannel 0, .loop

;;----------------------------------------
Music_BattleVictoryGuide_Ch2::
;;----------------------------------------

;; P3-1
	notetype 12, 1, 0
	octave 5
	D_ 4
	notetype 8, 1, 0
	octave 4
	B_ 2
	A_ 2
	G_ 2
	A_ 12
.loop
;; P3-2
	octave 5
	D_ 3
	rest 3
	D_ 3
	rest 3
	D_ 3
	rest 3
	D_ 3
	rest 3
;; P3-3
	D_ 3
	rest 3
	D_ 3
	rest 3
	D_ 3
	octave 4
	B_ 3
	octave 5
	C# 3
	octave 4
	A_ 3
;; P3-4
	octave 5
	D_ 3
	rest 3
	D_ 3
	rest 3
	D_ 3
	rest 3
	D_ 3
	rest 3
;; P3-5
	D_ 3
	rest 3
	D_ 3
	rest 3
	D_ 3
	F# 3
	D_ 3
	C# 3
	loopchannel 0, .loop
