;
;;	Digda01
;
;;	Converting on Fri Jul 28 15:35:04 1995
;
;;				by ver 1.02
;
;;----------------------------------------
Music_DiglettsCave_Ch0::
;;----------------------------------------

	tempo 144
	volume 7, 7
    duty 1
    toggleperfectpitch
	notetype 12, 11, 3
.loop
	rest 16
	rest 16
	rest 16
	rest 16
	rest 16
	rest 16
	rest 16
	rest 16
;; P1-1
	octave 3
	D# 2
;; P1-2 --- tied
	D_ 2
;; P1-3 --- tied
	D# 2
;; P1-4 --- tied
	F_ 2
;; P1-5 --- tied
	F# 2
;; P1-6 --- tied
	F_ 2
;; P1-7 --- tied
	F# 2
;; P1-8 --- tied
	G# 2
;; P1-9
	A_ 2
;; P1-10 --- tied
	G# 2
	A_ 2
	G# 2
	F# 2
	F_ 2
	F# 2
	G# 2
;; P1-11
	A_ 2
	G# 2
	A_ 2
	G# 2
	F# 2
	F_ 2
	F# 2
	F_ 2
;; P1-12
	A_ 2
	G# 2
	A_ 2
	G# 2
	F# 2
	F_ 2
	D# 2
	D_ 2
;; P1-13 -
	rest 16
;; P1-14 -
	rest 16
;; P1-15 -
	rest 16
;; P1-16 -
	rest 16
;; P1-17 -
	rest 16
;; P1-18 -
	rest 16
;; P1-19
	octave 4
	C# 2
	C# 2
	C# 2
	C# 2
	C# 2
	C# 2
	C# 2
	C# 2
;; P1-20
	C# 2
	C# 2
	C# 2
	C# 2
	C# 2
	C# 2
	C# 2
	C# 2
	rest 2
;; P1-21 --- tied
	F# 2
	rest 2
	F# 2
	rest 2
	F# 2
	rest 2
	F# 2
	rest 2
;; P1-22 --- tied
	F# 2
	rest 2
	F# 2
	rest 2
	F_ 2
	rest 2
	F_ 2
	rest 2
;; P1-23 --- tied
	F_ 2
	rest 2
	F_ 2
	rest 2
	F_ 2
	rest 2
	F_ 2
	rest 2
;; P1-24 --- tied
	F# 2
	rest 2
	F# 2
	rest 2
	F# 2
	rest 2
	F# 2
	rest 2
;; P1-25 --- tied
	F# 2
	rest 2
	F# 2
	rest 2
	G_ 2
	rest 2
	G_ 2
	rest 2
;; P1-26 --- tied
	G_ 2
	rest 2
	G_ 2
	rest 2
	G_ 2
	rest 2
	G_ 2
	rest 2
;; P1-27 --- tied
	F# 2
	rest 2
	F# 2
	rest 2
	F# 2
	rest 2
	F# 2
	rest 2
;; P1-28 --- tied
	F# 2
	rest 2
	F# 2
	rest 2
	F_ 2
	rest 2
	F_ 2
	rest 2
;; P1-29 --- tied
	F_ 2
	rest 2
	F_ 2
	rest 2
	F_ 2
	rest 2
	F_ 2
	rest 2
;; P1-30 --- tied
	E_ 2
	rest 2
	E_ 2
	rest 2
	E_ 2
	rest 2
	E_ 2
	rest 2
;; P1-31 --- tied
	E_ 2
	rest 2
	E_ 2
	rest 2
	F_ 2
	rest 2
	F_ 2
	rest 2
;; P1-32 --- tied
	F_ 2
	rest 2
	F_ 2
	rest 2
	F_ 2
	rest 2
	F_ 2
;; P1-33
	C# 2
	C# 2
	C# 2
	C# 2
	C# 2
	C# 2
	C# 2
	C# 2
;; P1-34
	C# 2
	C# 2
	C# 2
	C# 2
	C# 2
	C# 2
	C# 2
	C# 2
;; P1-35 -
	rest 16
;; P1-36 -
	rest 16

	loopchannel 0, .loop

;;----------------------------------------
Music_DiglettsCave_Ch1::
;;----------------------------------------
    duty 1
	notetype 12, 12, 3
.loop
;; P2-1 -
	rest 16
;; P2-2 -
	rest 16
;; P2-3 -
	rest 16
;; P2-4 -
	rest 16
;; P2-5
	octave 3
	A# 6
	octave 4
	C_ 2
	C# 6
	C_ 2
;; P2-6
	C# 6
	C_ 2
	C# 6
	D# 2
;; P2-7
	E_ 6
	D# 2
	E_ 6
	D# 2
;; P2-8
	C# 6
	C_ 2
	octave 3
	A# 6
	G# 2
;; P2-9
	A# 6
	octave 4
	C_ 2
	C# 6
	C_ 2
;; P2-10
	C# 6
	C_ 2
	C# 6
	D# 2
;; P2-11
	E_ 6
	D# 2
	E_ 6
	D# 2
;; P2-12
	C# 6
	C_ 2
	octave 3
	A# 6
	G# 2
;; P2-13 -
	rest 16
;; P2-14
	C# 2
	A_ 2
	G_ 2
	D# 2
	F_ 2
	A_ 2
;; P2-15 -
	rest 16
;; P2-16 -
	rest 4
	C_ 2
	G# 2
	F# 2
	D_ 2
	E_ 2
	G# 2
;; P2-17 -
	rest 16
;; P2-18 -
	rest 16
;; P2-19 -
	rest 4
	octave 4
	notetype 12, 12, 2
	B_ 2
	B_ 2
	B_ 2
	B_ 2
	B_ 2
	B_ 2
	B_ 2
	B_ 2
;; P2-20
	B_ 2
	B_ 2
	B_ 2
	B_ 2
	B_ 2
	B_ 2
	B_ 2
	B_ 2
	rest 2
;; P2-21 --- tied
	B_ 2
	rest 2
	B_ 2
	rest 2
	B_ 2
	rest 2
	B_ 2
	rest 2
;; P2-22 --- tied
	B_ 2
	rest 2
	B_ 2
	rest 2
	A# 2
	rest 2
	A# 2
	rest 2
;; P2-23 --- tied
	A# 2
	rest 2
	A# 2
	rest 2
	A# 2
	rest 2
	A# 2
	rest 2
;; P2-24 --- tied
	B_ 2
	rest 2
	B_ 2
	rest 2
	B_ 2
	rest 2
	B_ 2
	rest 2
;; P2-25 --- tied
	B_ 2
	rest 2
	B_ 2
	rest 2
	octave 5
	C_ 2
	rest 2
	C_ 2
	rest 2
;; P2-26 --- tied
	C_ 2
	rest 2
	C_ 2
	rest 2
	C_ 2
	rest 2
	C_ 2
	rest 2
;; P2-27 --- tied
	octave 4
	B_ 2
	rest 2
	B_ 2
	rest 2
	B_ 2
	rest 2
	B_ 2
	rest 2
;; P2-28 --- tied
	B_ 2
	rest 2
	B_ 2
	rest 2
	A# 2
	rest 2
	A# 2
	rest 2
;; P2-29 --- tied
	A# 2
	rest 2
	A# 2
	rest 2
	A# 2
	rest 2
	A# 2
	rest 2
;; P2-30 --- tied
	A_ 2
	rest 2
	A_ 2
	rest 2
	A_ 2
	rest 2
	A_ 2
	rest 2
;; P2-31 --- tied
	A_ 2
	rest 2
	A_ 2
	rest 2
	A# 2
	rest 2
	A# 2
	rest 2
;; P2-32 --- tied
	A# 2
	rest 2
	A# 2
	rest 2
	A# 2
	rest 2
	A# 2
;; P2-33
	B_ 2
	B_ 2
	B_ 2
	B_ 2
	B_ 2
	B_ 2
	B_ 2
	B_ 2
;; P2-34
	B_ 2
	B_ 2
	B_ 2
	B_ 2
	B_ 2
	B_ 2
	B_ 2
	B_ 2
;; P2-35 -
	rest 16
;; P2-36 -
	rest 16

	loopchannel 0, .loop

;;----------------------------------------
Music_DiglettsCave_Ch2::
;;----------------------------------------

;; P3-1
	notetype 12, 1, 0
.loop
	octave 5
	D_ 2
	A# 2
	G# 2
	E_ 2
	F# 2
	A# 2
	rest 4
;; P3-2
	octave 4
	D_ 2
	A# 2
	G# 2
	E_ 2
	F# 2
	A# 2
	rest 4
;; P3-3
	D_ 2
	A# 2
	G# 2
	E_ 2
	F# 2
	A# 2
	rest 4
;; P3-4
	D_ 2
	A# 2
	G# 2
	E_ 2
	F# 2
	A# 2
	rest 4
;; P3-5
	D_ 2
	A# 2
	G# 2
	E_ 2
	F# 2
	A# 2
	rest 4
;; P3-6
	D_ 2
	A# 2
	G# 2
	E_ 2
	F# 2
	A# 2
	rest 4
;; P3-7
	D_ 2
	A# 2
	G# 2
	E_ 2
	F# 2
	A# 2
	rest 4
;; P3-8
	D_ 2
	A# 2
	G# 2
	E_ 2
	F# 2
	A# 2
	rest 4
;; P3-9
	D_ 2
	A# 2
	G# 2
	E_ 2
	F# 2
	A# 2
	rest 4
;; P3-10
	D_ 2
	A# 2
	G# 2
	E_ 2
	F# 2
	A# 2
	rest 4
;; P3-11
	D_ 2
	A# 2
	G# 2
	E_ 2
	F# 2
	A# 2
	rest 4
;; P3-12
	D_ 2
	A# 2
	G# 2
	E_ 2
	F# 2
	A# 2
	rest 4
;; P3-13
	C# 2
	A_ 2
	G_ 2
	D# 2
	F_ 2
	A_ 2
	rest 4
;; P3-14
	C# 2
	A_ 2
	G_ 2
	D# 2
	F_ 2
	A_ 2
	rest 4
;; P3-15
	C_ 2
	G# 2
	F# 2
	D_ 2
	E_ 2
	G# 2
	rest 4
;; P3-16
	C_ 2
	G# 2
	F# 2
	D_ 2
	E_ 2
	G# 2
	rest 4
;; P3-17
	octave 3
	B_ 2
	octave 4
	G_ 2
	F_ 2
	C# 2
	D# 2
	G_ 2
	rest 4
;; P3-18
	octave 3
	B_ 2
	octave 4
	G_ 2
	F_ 2
	C# 2
	D# 2
	G_ 2
	rest 4
;; P3-19
	octave 3
	B_ 2
	octave 4
	G_ 2
	F_ 2
	C# 2
	D# 2
	G_ 2
	rest 4
;; P3-20
	octave 3
	B_ 2
	octave 4
	G_ 2
	F_ 2
	C# 2
	D# 2
	G_ 2
	rest 4
;; P3-21
	D_ 2
	A# 2
	G# 2
	E_ 2
	F# 2
	A# 2
	D_ 2
	A# 2
;; P3-22
	G# 2
	E_ 2
	F# 2
	A# 2
	C# 2
	A_ 2
	G_ 2
	D# 2
;; P3-23
	F_ 2
	A_ 2
	C# 2
	A_ 2
	G_ 2
	D# 2
	F_ 2
	A_ 2
;; P3-24
	D_ 2
	A# 2
	G# 2
	E_ 2
	F# 2
	A# 2
	D_ 2
	A# 2
;; P3-25
	G# 2
	E_ 2
	F# 2
	A# 2
	D# 2
	B_ 2
	A_ 2
	F_ 2
;; P3-26
	G_ 2
	B_ 2
	D# 2
	B_ 2
	A_ 2
	F_ 2
	G_ 2
	B_ 2
;; P3-27
	D_ 2
	A# 2
	G# 2
	E_ 2
	F# 2
	A# 2
	D_ 2
	A# 2
;; P3-28
	G# 2
	E_ 2
	F# 2
	A# 2
	C# 2
	A_ 2
	G_ 2
	D# 2
;; P3-29
	F_ 2
	A_ 2
	C# 2
	A_ 2
	G_ 2
	D# 2
	F_ 2
	A_ 2
;; P3-30
	C_ 2
	G# 2
	F# 2
	D_ 2
	E_ 2
	G# 2
	C_ 2
	G# 2
;; P3-31
	F# 2
	D_ 2
	E_ 2
	G# 2
	C# 2
	A_ 2
	G_ 2
	D# 2
;; P3-32
	F_ 2
	A_ 2
	C# 2
	A_ 2
	G_ 2
	D# 2
	F_ 2
	A_ 2
;; P3-33
	D_ 2
	A# 2
	G# 2
	E_ 2
	F# 2
	A# 2
	rest 4
;; P3-34
	D_ 2
	A# 2
	G# 2
	E_ 2
	F# 2
	A# 2
	rest 4
;; P3-35
	D_ 2
	A# 2
	G# 2
	E_ 2
	F# 2
	A# 2
	rest 4
;; P3-36
	D_ 2
	A# 2
	G# 2
	E_ 2
	F# 2
	A# 2
	rest 4

	loopchannel 0, .loop
