;;----------------------------------------
Music_Route3Early_Ch0::
;;----------------------------------------

	tempo 128
	volume 7, 7
	duty 3
	vibrato 6, 3, 4
	toggleperfectpitch

.loop10
	notetype 12, 11, 3
	octave 3
	C_ 6
	G_ 6
	E_ 4
	loopchannel 0, .loop10

;;----------------------------------------
Music_Route3Early_Ch1::
;;----------------------------------------

	duty 1
	vibrato 8, 2, 5
.loop20
	notetype 12, 12, 7
;; P2-3
	octave 4
	C_ 6
;; P2-4
	octave 3
	G_ 1
	octave 4
	C_ 1
	E_ 10
;; P2-5
	octave 3
	G_ 2
	octave 4
	C_ 2
	G_ 2
	F_ 2
	E_ 2
	D_ 2
	C_ 2
;; P2-6
	D_ 6
	notetype 12, 10, 0
	F_ 10
;; P2-7
	notetype 12, 9, 0
	F_ 8
	notetype 12, 8, 7
	F_ 8
;; P2-8
	notetype 12, 12, 7
	octave 4
	C_ 6
	octave 3
	G_ 1
	octave 4
	C_ 1
	E_ 10
;; P2-9
	octave 3
	G_ 2
	octave 4
	C_ 2
	G_ 2
	F_ 2
	E_ 2
	D_ 2
	C_ 2
;; P2-10
	D_ 8
	notetype 12, 10, 0
	F_ 8
;; P2-11
	notetype 12, 9, 0
	F_ 8
	notetype 12, 8, 7
	F_ 6

	notetype 12, 12, 7
	C_ 1
	D_ 1
;; P2-12
	E_ 2
	D_ 2
	E_ 2
	C_ 8
	octave 3
	B_ 1
	octave 4
	C_ 1
;; P2-13
	D_ 2
	octave 3
	G_ 4
	octave 4
	G_ 8
	F_ 1
	E_ 1
;; P2-14
	notetype 8, 13, 3
	F_ 4
	E_ 4
	notetype 8, 12, 4
	C_ 4
	notetype 8, 10, 0
	C_ 12
;; P2-15
	notetype 12, 10, 7
	C_ 16

	loopchannel 0, .loop20


;;----------------------------------------
Music_Route3Early_Ch2::
;;----------------------------------------

	notetype 12, 1, 1
.loop30
	octave 4
	C_ 1
	rest 1
	C_ 1
	rest 1
	C_ 1
	rest 1
	C_ 1
	rest 1
	C_ 1
	rest 1
	G_ 1
	rest 1
	G_ 1
	rest 1
	G_ 1
	rest 1
	loopchannel 2, .loop30

.loop31
	octave 4
	D_ 1
	rest 1
	D_ 1
	rest 1
	D_ 1
	rest 1
	D_ 1
	rest 1
	D_ 1
	rest 1
	A_ 1
	rest 1
	A_ 1
	rest 1
	A_ 1
	rest 1
	loopchannel 2, .loop31

	loopchannel 0, .loop30

;;----------------------------------------
Music_Route3Early_Ch3::
;;----------------------------------------

	dspeed 6
	mutedsnare4 1
	mutedsnare4 1
	mutedsnare3 1
	mutedsnare3 1
	mutedsnare2 8
	mutedsnare4 1
	mutedsnare4 1
	mutedsnare4 1
	mutedsnare4 1
	mutedsnare3 1
	mutedsnare4 1
	mutedsnare3 1
	mutedsnare3 1
	mutedsnare2 12
	mutedsnare2 2
	mutedsnare3 2
	mutedsnare2 4
	mutedsnare2 4
	mutedsnare4 1
	mutedsnare4 1
	mutedsnare4 1
	mutedsnare4 1
	mutedsnare3 1
	mutedsnare3 1
	mutedsnare3 1
	mutedsnare3 1
	mutedsnare2 12
	mutedsnare2 2
	mutedsnare3 2
	mutedsnare2 4
	mutedsnare3 4
	mutedsnare2 4
	mutedsnare4 1
	mutedsnare4 1
	mutedsnare3 1
	mutedsnare3 1

.loop40
	mutedsnare2 12
	mutedsnare2 2
	mutedsnare3 2
	mutedsnare2 4
	mutedsnare2 4
	mutedsnare4 1
	mutedsnare4 1
	mutedsnare4 1
	mutedsnare4 1
	mutedsnare3 1
	mutedsnare3 1
	mutedsnare3 1
	mutedsnare3 1
	mutedsnare2 12
	mutedsnare2 2
	mutedsnare2 2
	mutedsnare2 4
	mutedsnare2 8
	mutedsnare4 1
	mutedsnare4 1
	mutedsnare3 1
	mutedsnare3 1
	mutedsnare2 12
	mutedsnare2 2
	mutedsnare3 2
	mutedsnare2 4
	mutedsnare2 10
	mutedsnare4 1
	mutedsnare4 1
	mutedsnare2 12
	mutedsnare2 2
	mutedsnare4 2
	mutedsnare2 4
	mutedsnare2 4
	mutedsnare4 1
	mutedsnare4 1
	mutedsnare4 1
	mutedsnare4 1
	mutedsnare3 1
	mutedsnare4 1
	mutedsnare3 1
	mutedsnare3 1
	mutedsnare2 12
	mutedsnare2 2
	mutedsnare2 2
	mutedsnare2 4
	mutedsnare2 8
	mutedsnare4 1
	mutedsnare4 1
	mutedsnare3 1
	mutedsnare3 1
	mutedsnare2 12
	mutedsnare2 2
	mutedsnare2 2
	mutedsnare2 4
	mutedsnare2 10
	mutedsnare4 1
	mutedsnare4 1
	mutedsnare2 12
	mutedsnare2 2
	mutedsnare2 2
	mutedsnare2 4
	mutedsnare2 8
	mutedsnare4 1
	mutedsnare4 1
	mutedsnare3 1
	mutedsnare3 1
	mutedsnare2 12
	mutedsnare2 2
	mutedsnare2 2
	mutedsnare2 4
	mutedsnare2 4
	mutedsnare4 1
	mutedsnare4 1
	mutedsnare4 1
	mutedsnare4 1
	mutedsnare3 1
	mutedsnare3 1
	mutedsnare3 1
	mutedsnare3 1
	mutedsnare2 12
	mutedsnare2 2
	mutedsnare2 2
	mutedsnare2 4
	mutedsnare2 10
	mutedsnare4 1
	mutedsnare4 1
	mutedsnare2 12
	mutedsnare2 2
	mutedsnare2 2
	mutedsnare2 4
	mutedsnare2 8
	mutedsnare3 1
	mutedsnare4 1
	mutedsnare3 1
	mutedsnare4 1
	mutedsnare2 12
	mutedsnare2 2
	mutedsnare2 2
	mutedsnare2 4
	mutedsnare2 8
	mutedsnare4 1
	mutedsnare4 1
	mutedsnare3 1
	mutedsnare3 1
	mutedsnare2 12
	mutedsnare2 2
	mutedsnare2 2
	mutedsnare2 4
	mutedsnare2 4
	mutedsnare4 1
	mutedsnare4 1
	mutedsnare4 1
	mutedsnare4 1
	mutedsnare3 1
	mutedsnare3 1
	mutedsnare3 1
	mutedsnare3 1

	loopchannel 0, .loop40
